<svg width="909" height="1347" viewBox="0 0 909 1347" fill="none" xmlns="http://www.w3.org/2000/svg">
<path d="M726.474 -241.371L421.431 699.716M700.741 272.5L518.168 214.806M988.687 257.952L858.812 217.536M988.687 309.5L313.77 100.333M1011.52 479.313L267.851 247.892M991.868 636L280.5 402M623.265 90.2863L343.946 3.36492M991.868 149.5L359.689 -47.2269M985.169 81.1348L378.494 -107.656M1002.22 26.327L395.55 -162.464M364.5 682L604.818 -51.0992M313.77 695.5L543.075 -66.3883M280.5 417L448.257 -99.8194M510.843 1265.67L938.495 -19.7091M564.216 1282.28L991.868 -3.09998M631.822 1303.32L1059.47 17.9383M854.569 -201.509L394.519 1216.1" stroke="url(#paint0_linear)" stroke-width="20" stroke-linecap="round" stroke-linejoin="round"/>
<path d="M416.5 344L472.217 166.68C474.861 158.267 483.814 153.579 492.235 156.199L828.526 260.849C836.844 263.438 845.704 258.896 848.459 250.631L968.5 -109.5" stroke="url(#paint1_linear)" stroke-width="6" stroke-linecap="round"/>
<defs>
<linearGradient id="paint0_linear" x1="1320" y1="-96" x2="224.5" y2="780" gradientUnits="userSpaceOnUse">
<stop stop-color="#F5F5F7"/>
<stop offset="0.94316" stop-color="#F5F5F7" stop-opacity="0"/>
</linearGradient>
<linearGradient id="paint1_linear" x1="940.96" y1="-15.0887" x2="495.365" y2="343.935" gradientUnits="userSpaceOnUse">
<stop stop-color="#1B2534" stop-opacity="0"/>
<stop offset="1" stop-color="#1B2534"/>
</linearGradient>
</defs>
</svg>
